<svg xmlns="http://www.w3.org/2000/svg" width="24" height="24" fill="none">
  <path fill="#000"
    d="M7.63 20c-.49 0-.9-.17-1.24-.52a1.73 1.73 0 0 1-.51-1.26V6.67A.87.87 0 0 1 5 5.78a.87.87 0 0 1 .88-.9h3.5a.87.87 0 0 1 .87-.88h3.5c.25 0 .46.09.62.26.17.17.26.38.26.63h3.5c.24 0 .45.08.62.25.17.17.25.39.25.64a.87.87 0 0 1-.88.89v11.55c0 .5-.17.91-.5 1.26a1.7 1.7 0 0 1-1.25.52H7.63Zm2.62-3.56c.25 0 .46-.08.62-.25a.87.87 0 0 0 .26-.63V9.33a.87.87 0 0 0-.88-.89.87.87 0 0 0-.88.89v6.23a.87.87 0 0 0 .88.88Zm3.5 0c.25 0 .46-.08.62-.25a.87.87 0 0 0 .26-.63V9.33a.87.87 0 0 0-.88-.89.87.87 0 0 0-.88.89v6.23a.87.87 0 0 0 .88.88Z" />
</svg>