<svg xmlns="http://www.w3.org/2000/svg" width="24" height="24" fill="none">
  <path fill="#000"
    d="M19.84 11.64c-2.04-2.04-2.02-2.04-2.13-2.1-.1-.04-.7-.3-3.52-1.59a.5.5 0 1 0-.4.91l2.5 1.14-4.3 1.95L7.7 10l2.5-1.14a.5.5 0 0 0 .25-.66.5.5 0 0 0-.66-.25l-3.5 1.6c-.12.05-.07.02-2.14 2.1a.5.5 0 0 0 .14.8l5.5 2.5a.5.5 0 0 0 .56-.1l1.15-1.14v5L7 16.68V15a.5.5 0 0 0-.5-.5.5.5 0 0 0-.5.5c0 2.21-.02 2.1.09 2.27.05.08.03.08.15.15.05.03.01.03.06.05 6 2.71 5.54 2.53 5.7 2.53.15 0-.25.16 5.7-2.55A.5.5 0 0 0 18 17v-3.77l1.7-.77a.5.5 0 0 0 .15-.81ZM9.88 13.9l-4.53-2.05 1.24-1.24 4.53 2.06-1.24 1.24Zm7.11 2.78-4.5 2.04V13.7c1.23 1.23 1.22 1.3 1.5 1.3.16 0 .03.03 3-1.32v3-.01Zm-2.9-2.78-1.24-1.24 4.54-2.06 1.24 1.25-4.53 2.05Z" />
  <path fill="#000"
    d="M11.48 8.45c0-.65.37-1.24.98-1.58a.99.99 0 0 0 .5-1.06 1 1 0 1 0-1.92.52.5.5 0 0 1-.3.64.5.5 0 0 1-.65-.3 2 2 0 1 1 2.85 1.08c-.29.16-.46.43-.46.7 0 .68-1 .72-1 0ZM12 10.5a.5.5 0 0 1-.5-.5c0-.15.1-.5.5-.5.27 0 .5.22.5.5a.5.5 0 0 1-.5.5Z" />
</svg>