<svg xmlns="http://www.w3.org/2000/svg" width="24" height="24" fill="none">
  <path fill="#000"
    d="M12 20a7.78 7.78 0 0 1-4.96-1.7 7.72 7.72 0 0 1-2.8-4.34.66.66 0 0 1 .14-.62.87.87 0 0 1 .6-.32.96.96 0 0 1 .64.14.92.92 0 0 1 .4.53 5.93 5.93 0 0 0 2.2 3.27A6.08 6.08 0 0 0 12 18.22a6 6 0 0 0 4.41-1.8A6 6 0 0 0 18.22 12a6 6 0 0 0-1.8-4.41A6 6 0 0 0 12 5.78a6 6 0 0 0-2.87.7A6.6 6.6 0 0 0 6.9 8.45h1.55a.86.86 0 0 1 .64.26.86.86 0 0 1 .25.63.86.86 0 0 1-.25.64.86.86 0 0 1-.63.25H4.88a.86.86 0 0 1-.63-.25.86.86 0 0 1-.26-.64V5.78a.86.86 0 0 1 .26-.64.86.86 0 0 1 .63-.25.86.86 0 0 1 .63.25.86.86 0 0 1 .26.64v1.2a7.76 7.76 0 0 1 2.76-2.2A7.94 7.94 0 0 1 12 4a7.74 7.74 0 0 1 3.12.63c.97.43 1.82 1 2.54 1.71a8.13 8.13 0 0 1 1.7 2.54A7.74 7.74 0 0 1 20 12a7.74 7.74 0 0 1-.63 3.12 8.13 8.13 0 0 1-1.71 2.54 8.13 8.13 0 0 1-2.54 1.7A7.74 7.74 0 0 1 12 20Zm.89-8.36 2.22 2.23c.16.16.25.37.25.62s-.09.46-.25.62a.84.84 0 0 1-.62.25.84.84 0 0 1-.62-.25l-2.5-2.49a.89.89 0 0 1-.26-.64V8.44a.86.86 0 0 1 .26-.63.86.86 0 0 1 .63-.25.86.86 0 0 1 .63.25.86.86 0 0 1 .26.63v3.2Z" />
</svg>