<svg xmlns="http://www.w3.org/2000/svg" width="24" height="24" fill="none">
  <path fill="#000"
    d="M12 16a.77.77 0 0 0 .57-.23.77.77 0 0 0 .23-.57V12a.77.77 0 0 0-.23-.57.77.77 0 0 0-.57-.23.77.77 0 0 0-.57.23.77.77 0 0 0-.23.57v3.2c0 .23.08.42.23.57.15.15.34.23.57.23Zm0-6.4a.77.77 0 0 0 .57-.23.77.77 0 0 0 .23-.57.77.77 0 0 0-.23-.57A.77.77 0 0 0 12 8a.77.77 0 0 0-.57.23.77.77 0 0 0-.23.57c0 .23.08.42.23.57.15.15.34.23.57.23ZM12 20a7.79 7.79 0 0 1-3.12-.63 8.08 8.08 0 0 1-2.54-1.71 8.08 8.08 0 0 1-1.71-2.54A7.79 7.79 0 0 1 4 12a8.08 8.08 0 0 1 2.34-5.66 8.08 8.08 0 0 1 2.54-1.71A7.79 7.79 0 0 1 12 4a7.79 7.79 0 0 1 3.12.63 8.08 8.08 0 0 1 4.25 4.25c.42.97.63 2.01.63 3.12a7.79 7.79 0 0 1-.63 3.12 8.08 8.08 0 0 1-1.71 2.54 8.08 8.08 0 0 1-2.54 1.71A7.79 7.79 0 0 1 12 20Z" />
</svg>