<svg xmlns="http://www.w3.org/2000/svg" width="24" height="24" fill="none">
  <path fill="#000"
    d="M5.78 20c-.5 0-.91-.17-1.26-.52A1.71 1.71 0 0 1 4 18.22V5.78c0-.5.17-.91.52-1.26A1.71 1.71 0 0 1 5.78 4h5.33a.86.86 0 0 1 .63.26.86.86 0 0 1 .26.63.86.86 0 0 1-.26.63.86.86 0 0 1-.63.26H5.78v12.44h12.44V12.9a.86.86 0 0 1 .26-.63.86.86 0 0 1 .63-.26.86.86 0 0 1 .63.26.86.86 0 0 1 .26.63v5.33c0 .5-.17.91-.52 1.26a1.71 1.71 0 0 1-1.26.52H5.78ZM18.22 7.02l-7.64 7.65a.84.84 0 0 1-.62.24.84.84 0 0 1-.63-.24.84.84 0 0 1-.24-.63c0-.25.08-.45.24-.62l7.65-7.64h-2.31a.86.86 0 0 1-.64-.26.86.86 0 0 1-.25-.63.86.86 0 0 1 .25-.63.86.86 0 0 1 .64-.26h4.44a.86.86 0 0 1 .63.26.86.86 0 0 1 .26.63v4.44a.86.86 0 0 1-.26.64.86.86 0 0 1-.63.25.86.86 0 0 1-.63-.25.86.86 0 0 1-.26-.64v-2.3Z" />
</svg>