<svg width="24" height="24" viewBox="0 0 24 24" fill="none" xmlns="http://www.w3.org/2000/svg">
<path d="M4.8 8C4.57333 8 4.38333 7.92333 4.23 7.77C4.07667 7.61667 4 7.42667 4 7.2V4.8C4 4.57333 4.07667 4.38333 4.23 4.23C4.38333 4.07667 4.57333 4 4.8 4H7.2C7.42667 4 7.61667 4.07667 7.77 4.23C7.92333 4.38333 8 4.57333 8 4.8C8 5.02667 7.92333 5.21667 7.77 5.37C7.61667 5.52333 7.42667 5.6 7.2 5.6H5.6V7.2C5.6 7.42667 5.52333 7.61667 5.37 7.77C5.21667 7.92333 5.02667 8 4.8 8ZM4.8 20C4.57333 20 4.38333 19.9233 4.23 19.77C4.07667 19.6167 4 19.4267 4 19.2V16.8C4 16.5733 4.07667 16.3833 4.23 16.23C4.38333 16.0767 4.57333 16 4.8 16C5.02667 16 5.21667 16.0767 5.37 16.23C5.52333 16.3833 5.6 16.5733 5.6 16.8V18.4H7.2C7.42667 18.4 7.61667 18.4767 7.77 18.63C7.92333 18.7833 8 18.9733 8 19.2C8 19.4267 7.92333 19.6167 7.77 19.77C7.61667 19.9233 7.42667 20 7.2 20H4.8ZM16.8 20C16.5733 20 16.3833 19.9233 16.23 19.77C16.0767 19.6167 16 19.4267 16 19.2C16 18.9733 16.0767 18.7833 16.23 18.63C16.3833 18.4767 16.5733 18.4 16.8 18.4H18.4V16.8C18.4 16.5733 18.4767 16.3833 18.63 16.23C18.7833 16.0767 18.9733 16 19.2 16C19.4267 16 19.6167 16.0767 19.77 16.23C19.9233 16.3833 20 16.5733 20 16.8V19.2C20 19.4267 19.9233 19.6167 19.77 19.77C19.6167 19.9233 19.4267 20 19.2 20H16.8ZM19.2 8C18.9733 8 18.7833 7.92333 18.63 7.77C18.4767 7.61667 18.4 7.42667 18.4 7.2V5.6H16.8C16.5733 5.6 16.3833 5.52333 16.23 5.37C16.0767 5.21667 16 5.02667 16 4.8C16 4.57333 16.0767 4.38333 16.23 4.23C16.3833 4.07667 16.5733 4 16.8 4H19.2C19.4267 4 19.6167 4.07667 19.77 4.23C19.9233 4.38333 20 4.57333 20 4.8V7.2C20 7.42667 19.9233 7.61667 19.77 7.77C19.6167 7.92333 19.4267 8 19.2 8ZM16.4 17.6V16.4H17.6V17.6H16.4ZM16.4 15.2V14H17.6V15.2H16.4ZM15.2 16.4V15.2H16.4V16.4H15.2ZM14 17.6V16.4H15.2V17.6H14ZM12.8 16.4V15.2H14V16.4H12.8ZM15.2 14V12.8H16.4V14H15.2ZM14 15.2V14H15.2V15.2H14ZM12.8 14V12.8H14V14H12.8ZM13.6 11.2C13.3733 11.2 13.1833 11.1233 13.03 10.97C12.8767 10.8167 12.8 10.6267 12.8 10.4V7.2C12.8 6.97333 12.8767 6.78333 13.03 6.63C13.1833 6.47667 13.3733 6.4 13.6 6.4H16.8C17.0267 6.4 17.2167 6.47667 17.37 6.63C17.5233 6.78333 17.6 6.97333 17.6 7.2V10.4C17.6 10.6267 17.5233 10.8167 17.37 10.97C17.2167 11.1233 17.0267 11.2 16.8 11.2H13.6ZM7.2 17.6C6.97333 17.6 6.78333 17.5233 6.63 17.37C6.47667 17.2167 6.4 17.0267 6.4 16.8V13.6C6.4 13.3733 6.47667 13.1833 6.63 13.03C6.78333 12.8767 6.97333 12.8 7.2 12.8H10.4C10.6267 12.8 10.8167 12.8767 10.97 13.03C11.1233 13.1833 11.2 13.3733 11.2 13.6V16.8C11.2 17.0267 11.1233 17.2167 10.97 17.37C10.8167 17.5233 10.6267 17.6 10.4 17.6H7.2ZM7.2 11.2C6.97333 11.2 6.78333 11.1233 6.63 10.97C6.47667 10.8167 6.4 10.6267 6.4 10.4V7.2C6.4 6.97333 6.47667 6.78333 6.63 6.63C6.78333 6.47667 6.97333 6.4 7.2 6.4H10.4C10.6267 6.4 10.8167 6.47667 10.97 6.63C11.1233 6.78333 11.2 6.97333 11.2 7.2V10.4C11.2 10.6267 11.1233 10.8167 10.97 10.97C10.8167 11.1233 10.6267 11.2 10.4 11.2H7.2ZM7.6 16.4H10V14H7.6V16.4ZM7.6 10H10V7.6H7.6V10ZM14 10H16.4V7.6H14V10Z" fill="black"/>
</svg>
