<svg width="200" height="200" viewBox="0 0 200 200" fill="none" xmlns="http://www.w3.org/2000/svg">
<path d="M39.35 198.85C38.5833 199.617 37.6333 200 36.5 200H4.5C3.36666 200 2.41667 199.617 1.65 198.85C0.883335 198.083 0.5 197.133 0.5 196V164C0.5 162.867 0.883335 161.917 1.65 161.15C2.41667 160.383 3.36666 160 4.5 160C5.63334 160 6.58333 160.383 7.35 161.15C8.11666 161.917 8.5 162.867 8.5 164V192H36.5C37.6333 192 38.5833 192.383 39.35 193.15C40.1167 193.917 40.5 194.867 40.5 196C40.5 197.133 40.1167 198.083 39.35 198.85Z" fill="#FCF8F8"/>
<path d="M1.65 38.85C0.883335 38.0833 0.5 37.1333 0.5 36V4.00003C0.5 2.8667 0.883335 1.9167 1.65 1.15004C2.41667 0.383369 3.36666 3.05176e-05 4.5 3.05176e-05H36.5C37.6333 3.05176e-05 38.5833 0.383369 39.35 1.15004C40.1167 1.9167 40.5 2.8667 40.5 4.00003C40.5 5.13337 40.1167 6.08336 39.35 6.85003C38.5833 7.6167 37.6333 8.00003 36.5 8.00003H8.5V36C8.5 37.1333 8.11666 38.0833 7.35 38.85C6.58333 39.6167 5.63334 40 4.5 40C3.36666 40 2.41667 39.6167 1.65 38.85Z" fill="#FCF8F8"/>
<path d="M161.65 198.85C162.417 199.617 163.367 200 164.5 200H196.5C197.633 200 198.583 199.617 199.35 198.85C200.117 198.083 200.5 197.133 200.5 196V164C200.5 162.867 200.117 161.917 199.35 161.15C198.583 160.383 197.633 160 196.5 160C195.367 160 194.417 160.383 193.65 161.15C192.883 161.917 192.5 162.867 192.5 164V192H164.5C163.367 192 162.417 192.383 161.65 193.15C160.883 193.917 160.5 194.867 160.5 196C160.5 197.133 160.883 198.083 161.65 198.85Z" fill="#FCF8F8"/>
<path d="M199.35 38.85C200.117 38.0833 200.5 37.1333 200.5 36V4C200.5 2.86666 200.117 1.91667 199.35 1.15C198.583 0.383335 197.633 0 196.5 0H164.5C163.367 0 162.417 0.383335 161.65 1.15C160.883 1.91667 160.5 2.86666 160.5 4C160.5 5.13334 160.883 6.08333 161.65 6.85C162.417 7.61666 163.367 8 164.5 8H192.5V36C192.5 37.1333 192.883 38.0833 193.65 38.85C194.417 39.6167 195.367 40 196.5 40C197.633 40 198.583 39.6167 199.35 38.85Z" fill="#FCF8F8"/>
</svg>
