<svg xmlns="http://www.w3.org/2000/svg" width="200" height="200" fill="none">
  <path fill="#FCF8F8"
    d="M39.35 198.85A3.87 3.87 0 0 1 36.5 200h-32a3.87 3.87 0 0 1-2.85-1.15A3.87 3.87 0 0 1 .5 196v-32c0-1.13.38-2.08 1.15-2.85.77-.77 1.72-1.15 2.85-1.15s2.08.38 2.85 1.15A3.87 3.87 0 0 1 8.5 164v28h28c1.13 0 2.08.38 2.85 1.15.77.77 1.15 1.72 1.15 2.85s-.38 2.08-1.15 2.85Zm-37.7-160A3.87 3.87 0 0 1 .5 36V4c0-1.13.38-2.08 1.15-2.85A3.87 3.87 0 0 1 4.5 0h32c1.13 0 2.08.38 2.85 1.15.77.77 1.15 1.72 1.15 2.85s-.38 2.08-1.15 2.85A3.87 3.87 0 0 1 36.5 8h-28v28c0 1.13-.38 2.08-1.15 2.85C6.58 39.62 5.63 40 4.5 40s-2.08-.38-2.85-1.15Zm160 160a3.87 3.87 0 0 0 2.85 1.15h32c1.13 0 2.08-.38 2.85-1.15a3.87 3.87 0 0 0 1.15-2.85v-32c0-1.13-.38-2.08-1.15-2.85-.77-.77-1.72-1.15-2.85-1.15s-2.08.38-2.85 1.15a3.87 3.87 0 0 0-1.15 2.85v28h-28c-1.13 0-2.08.38-2.85 1.15-.77.77-1.15 1.72-1.15 2.85s.38 2.08 1.15 2.85Zm37.7-160A3.87 3.87 0 0 0 200.5 36V4c0-1.13-.38-2.08-1.15-2.85A3.87 3.87 0 0 0 196.5 0h-32c-1.13 0-2.08.38-2.85 1.15-.77.77-1.15 1.72-1.15 2.85s.38 2.08 1.15 2.85A3.87 3.87 0 0 0 164.5 8h28v28c0 1.13.38 2.08 1.15 2.85.77.77 1.72 1.15 2.85 1.15s2.08-.38 2.85-1.15Z" />
</svg>