<svg xmlns="http://www.w3.org/2000/svg" width="24" height="24" fill="none">
  <path fill="#000"
    d="M4.8 8a.77.77 0 0 1-.57-.23A.77.77 0 0 1 4 7.2V4.8c0-.23.08-.42.23-.57A.77.77 0 0 1 4.8 4h2.4c.23 0 .42.08.57.23.15.15.23.34.23.57a.77.77 0 0 1-.23.57.77.77 0 0 1-.57.23H5.6v1.6a.77.77 0 0 1-.23.57.77.77 0 0 1-.57.23Zm0 12a.77.77 0 0 1-.57-.23.77.77 0 0 1-.23-.57v-2.4c0-.23.08-.42.23-.57A.77.77 0 0 1 4.8 16c.23 0 .42.08.57.23.15.15.23.34.23.57v1.6h1.6c.23 0 .42.08.57.23.15.15.23.34.23.57a.77.77 0 0 1-.23.57.77.77 0 0 1-.57.23H4.8Zm12 0a.77.77 0 0 1-.57-.23.77.77 0 0 1-.23-.57c0-.23.08-.42.23-.57a.77.77 0 0 1 .57-.23h1.6v-1.6c0-.23.08-.42.23-.57a.77.77 0 0 1 .57-.23c.23 0 .42.08.57.23.15.15.23.34.23.57v2.4a.77.77 0 0 1-.23.57.77.77 0 0 1-.57.23h-2.4Zm2.4-12a.77.77 0 0 1-.57-.23.77.77 0 0 1-.23-.57V5.6h-1.6a.77.77 0 0 1-.57-.23.77.77 0 0 1-.23-.57c0-.23.08-.42.23-.57A.77.77 0 0 1 16.8 4h2.4c.23 0 .42.08.57.23.15.15.23.34.23.57v2.4a.77.77 0 0 1-.23.57.77.77 0 0 1-.57.23Zm-2.8 9.6v-1.2h1.2v1.2h-1.2Zm0-2.4V14h1.2v1.2h-1.2Zm-1.2 1.2v-1.2h1.2v1.2h-1.2ZM14 17.6v-1.2h1.2v1.2H14Zm-1.2-1.2v-1.2H14v1.2h-1.2Zm2.4-2.4v-1.2h1.2V14h-1.2ZM14 15.2V14h1.2v1.2H14ZM12.8 14v-1.2H14V14h-1.2Zm.8-2.8a.77.77 0 0 1-.57-.23.77.77 0 0 1-.23-.57V7.2c0-.23.08-.42.23-.57a.77.77 0 0 1 .57-.23h3.2c.23 0 .42.08.57.23.15.15.23.34.23.57v3.2a.77.77 0 0 1-.23.57.77.77 0 0 1-.57.23h-3.2Zm-6.4 6.4a.77.77 0 0 1-.57-.23.77.77 0 0 1-.23-.57v-3.2c0-.23.08-.42.23-.57a.77.77 0 0 1 .57-.23h3.2c.23 0 .42.08.57.23.15.15.23.34.23.57v3.2a.77.77 0 0 1-.23.57.77.77 0 0 1-.57.23H7.2Zm0-6.4a.77.77 0 0 1-.57-.23.77.77 0 0 1-.23-.57V7.2c0-.23.08-.42.23-.57a.77.77 0 0 1 .57-.23h3.2c.23 0 .42.08.57.23.15.15.23.34.23.57v3.2a.77.77 0 0 1-.23.57.77.77 0 0 1-.57.23H7.2Zm.4 5.2H10V14H7.6v2.4Zm0-6.4H10V7.6H7.6V10Zm6.4 0h2.4V7.6H14V10Z" />
</svg>