<svg xmlns="http://www.w3.org/2000/svg" width="24" height="24" fill="none">
  <path fill="#000"
    d="M16.67 20c-.65 0-1.2-.23-1.66-.7a2.35 2.35 0 0 1-.68-1.7l.06-.56-5.46-3.28a2.3 2.3 0 0 1-3.25-.06A2.35 2.35 0 0 1 5 12c0-.67.23-1.23.68-1.7a2.22 2.22 0 0 1 1.65-.7c.31 0 .6.06.88.17a2.3 2.3 0 0 1 .72.47l5.46-3.28a1.39 1.39 0 0 1-.05-.27 3.9 3.9 0 0 1 0-.29c0-.67.22-1.23.67-1.7a2.22 2.22 0 0 1 1.66-.7A2.36 2.36 0 0 1 19 6.4c0 .67-.23 1.23-.68 1.7-.45.47-1 .7-1.65.7-.31 0-.6-.06-.88-.17a2.3 2.3 0 0 1-.72-.47l-5.46 3.28.05.27a3.91 3.91 0 0 1 0 .58 1.4 1.4 0 0 1-.05.27l5.46 3.28a2.3 2.3 0 0 1 3.25.06c.45.47.68 1.03.68 1.7s-.23 1.23-.68 1.7c-.45.47-1 .7-1.65.7Z" />
</svg>